<svg width="96" height="96" viewBox="0 0 96 96" fill="none" xmlns="http://www.w3.org/2000/svg">
<path d="M94.4001 0H1.59994C0.715125 0 0 0.716812 0 1.59994V94.3999C0 95.2832 0.715125 96 1.59994 96H94.3999C95.2847 96 95.9998 95.2832 95.9998 94.4001V1.59994C96 0.716812 95.2849 0 94.4001 0ZM54.3999 73.5999C54.3999 81.5391 47.9407 87.9999 39.9999 87.9999C32.0591 87.9999 25.5999 81.5391 25.5999 73.5999C25.5999 72.7168 26.3151 72 27.1999 72C28.0847 72 28.7998 72.7168 28.7998 73.5999C28.7998 79.776 33.8254 84.7999 39.9998 84.7999C46.1741 84.7999 51.1997 79.7758 51.1997 73.5999V35.1999C51.1997 34.3168 51.9148 33.6 52.7996 33.6C53.6844 33.6 54.3996 34.3168 54.3996 35.1999V73.5999H54.3999ZM73.5999 59.1999C81.5407 59.1999 87.9999 65.6608 87.9999 73.5999C87.9999 81.5391 81.5407 87.9999 73.5999 87.9999C65.6591 87.9999 59.1999 81.5391 59.1999 73.5999C59.1999 72.7168 59.9151 72 60.7999 72C61.6847 72 62.3998 72.7168 62.3998 73.5999C62.3998 79.776 67.4254 84.7999 73.5998 84.7999C79.7741 84.7999 84.7997 79.7758 84.7997 73.5999C84.7997 67.4239 79.7741 62.4 73.5998 62.4C65.6589 62.4 59.1997 55.9391 59.1997 48C59.1997 40.0609 65.6589 33.6 73.5998 33.6C81.5406 33.6 87.9998 40.0609 87.9998 48C87.9998 48.8831 87.2846 49.5999 86.3998 49.5999C85.515 49.5999 84.7999 48.8831 84.7999 48C84.7999 41.8239 79.7743 36.8001 73.5999 36.8001C67.4256 36.8001 62.4 41.8241 62.4 48C62.4 54.1759 67.4256 59.1999 73.5999 59.1999Z" fill="black"/>
</svg>
