<svg width="96" height="96" viewBox="0 0 96 96" fill="none" xmlns="http://www.w3.org/2000/svg">
<path d="M94.4001 35.1999H76.8V22.3999H56.0001C55.1169 22.3999 54.4001 21.6831 54.4001 20.7999V0H1.59994C0.716812 0 0 0.716812 0 1.59994V94.3999C0 95.2832 0.716812 96 1.59994 96H75.1999C76.0847 96 76.7998 95.2832 76.7998 94.4001V76.8H94.3999C95.2847 76.8 95.9998 76.0832 95.9998 75.2001V36.8001C96 35.9167 95.2849 35.1999 94.4001 35.1999ZM92.7999 73.5999H75.1999H11.1999V38.4H75.1999H92.7999V73.5999V73.5999Z" fill="black"/>
<path d="M22.4 44.7999C25.0463 44.7999 27.2 46.9536 27.2 49.5999C27.2 50.4831 27.9168 51.1999 28.7999 51.1999C29.683 51.1999 30.3998 50.4831 30.3998 49.5999C30.3998 45.1888 26.8111 41.5999 22.3998 41.5999C17.9885 41.5999 14.3999 45.1888 14.3999 49.5999C14.3999 54.0111 17.9887 57.6 22.4 57.6C25.0463 57.6 27.2 59.7536 27.2 62.4C27.2 65.0464 25.0463 67.2 22.4 67.2C19.7536 67.2 17.6 65.0464 17.6 62.4C17.6 61.5169 16.8832 60.8001 16 60.8001C15.1169 60.8001 14.4001 61.5169 14.4001 62.4C14.4001 66.8111 17.9888 70.4001 22.4002 70.4001C26.8115 70.4001 30.4002 66.8113 30.4002 62.4C30.4002 57.9889 26.8115 54.3999 22.4002 54.3999C19.7538 54.3999 17.6002 52.2463 17.6002 49.5999C17.6002 46.9536 19.7536 44.7999 22.4 44.7999Z" fill="black"/>
<path d="M62.4002 44.7999C65.0465 44.7999 67.2002 46.9536 67.2002 49.5999C67.2002 50.4831 67.917 51.1999 68.8001 51.1999C69.6832 51.1999 70.4 50.4831 70.4 49.5999C70.4 45.1888 66.8113 41.5999 62.4 41.5999C57.9888 41.5999 54.3999 45.1886 54.3999 49.5999C54.3999 54.0111 57.9887 57.6 62.4 57.6C65.0463 57.6 67.2 59.7536 67.2 62.4C67.2 65.0464 65.0463 67.2 62.4 67.2C59.7536 67.2 57.6 65.0464 57.6 62.4C57.6 61.5169 56.8832 60.8001 56 60.8001C55.1169 60.8001 54.4001 61.5169 54.4001 62.4C54.4001 66.8111 57.9888 70.4001 62.4002 70.4001C66.8113 70.4001 70.4002 66.8113 70.4002 62.4C70.4002 57.9889 66.8115 54.3999 62.4002 54.3999C59.7538 54.3999 57.6002 52.2463 57.6002 49.5999C57.6002 46.9536 59.7538 44.7999 62.4002 44.7999Z" fill="black"/>
<path d="M81.5997 57.6C84.246 57.6 86.3997 59.7536 86.3997 62.4C86.3997 65.0464 84.246 67.2 81.5997 67.2C78.9533 67.2 76.7997 65.0464 76.7997 62.4C76.7997 61.5169 76.0845 60.8001 75.1997 60.8001C74.3166 60.8001 73.5998 61.5169 73.5998 62.4C73.5998 66.8111 77.1885 70.4001 81.5999 70.4001C86.011 70.4001 89.5999 66.8113 89.5999 62.4C89.5999 57.9889 86.0112 54.3999 81.5999 54.3999C78.9535 54.3999 76.7999 52.2463 76.7999 49.5999C76.7999 46.9536 78.9535 44.7999 81.5999 44.7999C84.2462 44.7999 86.3999 46.9536 86.3999 49.5999C86.3999 50.4831 87.115 51.1999 87.9998 51.1999C88.8846 51.1999 89.5997 50.4831 89.5997 49.5999C89.5997 45.1888 86.011 41.5999 81.5997 41.5999C77.1886 41.5999 73.5996 45.1886 73.5996 49.5999C73.5996 54.0112 77.1886 57.6 81.5997 57.6Z" fill="black"/>
<path d="M43.0984 42.6384C42.8584 41.9985 42.2407 41.5697 41.556 41.6001C40.8727 41.6192 40.2759 42.0705 40.0729 42.7232L32.0728 68.3231C31.8105 69.1663 32.2792 70.0639 33.1224 70.3279C33.9592 70.5838 34.8632 70.1199 35.1272 69.2767L37.7767 60.7999H46.4904L49.7015 69.3615C49.9432 70.0031 50.5528 70.3999 51.2008 70.3999C51.3864 70.3999 51.5767 70.3663 51.7624 70.299C52.5896 69.987 53.0087 69.0654 52.6984 68.2382L43.0984 42.6384ZM38.7769 57.6L41.7384 48.1232L45.2921 57.6H38.7769Z" fill="black"/>
<path d="M57.5996 0.9375V19.1998H75.8619L57.5996 0.9375Z" fill="black"/>
</svg>
