<svg width="95" height="95" viewBox="0 0 95 95" fill="none" xmlns="http://www.w3.org/2000/svg">
<path d="M90.2498 0H4.74999C2.13119 0 0 2.13119 0 4.74999V12.6667H94.9998V4.74999C94.9998 2.13119 92.8688 0 90.2498 0ZM7.91671 9.49998C7.04279 9.49998 6.33344 8.79064 6.33344 7.91671C6.33344 7.04279 7.04279 6.33344 7.91671 6.33344C8.79064 6.33344 9.49998 7.04279 9.49998 7.91671C9.49998 8.79064 8.79064 9.49998 7.91671 9.49998ZM14.25 9.49998C13.376 9.49998 12.6667 8.79064 12.6667 7.91671C12.6667 7.04279 13.376 6.33344 14.25 6.33344C15.1239 6.33344 15.8332 7.04279 15.8332 7.91671C15.8334 8.79064 15.1241 9.49998 14.25 9.49998ZM20.5834 9.49998C19.7095 9.49998 19.0001 8.79064 19.0001 7.91671C19.0001 7.04279 19.7095 6.33344 20.5834 6.33344C21.4573 6.33344 22.1667 7.04279 22.1667 7.91671C22.1667 8.79064 21.4573 9.49998 20.5834 9.49998Z" fill="black"/>
<path d="M0 90.25C0 92.8688 2.13119 95 4.74999 95H90.2498C92.8686 95 94.9998 92.8688 94.9998 90.25V15.8334H0V90.25ZM77.8778 45.2533C77.3696 44.5425 77.5341 43.5528 78.2466 43.0446C78.956 42.5364 79.9472 42.7009 80.4554 43.4134L88.3721 54.4967C88.7647 55.0478 88.7647 55.7855 88.3721 56.3366L80.4554 67.4198C80.1466 67.8521 79.659 68.0831 79.1649 68.0831C78.8467 68.0831 78.5253 67.9865 78.2466 67.7887C77.5341 67.2805 77.3696 66.2908 77.8778 65.5799L85.1373 55.4166L77.8778 45.2533ZM66.4999 49.0834C66.4999 48.2094 67.2092 47.5001 68.0831 47.5001C68.9571 47.5001 69.6664 48.2094 69.6664 49.0834V60.1666H74.4164C75.2903 60.1666 75.9997 60.876 75.9997 61.7499C75.9997 62.6238 75.2903 63.3332 74.4164 63.3332H68.0831C67.2092 63.3332 66.4999 62.6238 66.4999 61.7499V49.0834V49.0834ZM50.6666 49.0834C50.6666 48.4009 51.1021 47.796 51.7497 47.5808C52.3957 47.3654 53.1082 47.5888 53.5166 48.1334L56.9999 52.7772L60.4832 48.1334C60.8932 47.5888 61.6057 47.3671 62.2501 47.5808C62.8977 47.7962 63.3332 48.4009 63.3332 49.0834V61.7501C63.3332 62.624 62.6238 63.3333 61.7499 63.3333C60.876 63.3333 60.1666 62.624 60.1666 61.7501V53.8334L58.2666 56.3666C57.6697 57.1647 56.3303 57.1647 55.7333 56.3666L53.8334 53.8334V61.7501C53.8334 62.624 53.124 63.3333 52.2501 63.3333C51.3762 63.3333 50.6668 62.624 50.6668 61.7501V49.0834H50.6666ZM36.4167 47.5001H45.9166C46.7906 47.5001 47.4999 48.2094 47.4999 49.0834C47.4999 49.9573 46.7906 50.6666 45.9166 50.6666H42.7499V61.7499C42.7499 62.6238 42.0406 63.3332 41.1666 63.3332C40.2927 63.3332 39.5834 62.6238 39.5834 61.7499V50.6666H36.4167C35.5427 50.6666 34.8334 49.9573 34.8334 49.0834C34.8334 48.2094 35.5427 47.5001 36.4167 47.5001ZM19 49.0834C19 48.2094 19.7093 47.5001 20.5832 47.5001C21.4572 47.5001 22.1665 48.2094 22.1665 49.0834V53.8334H28.4999V49.0834C28.4999 48.2094 29.2093 47.5001 30.0832 47.5001C30.9571 47.5001 31.6665 48.2094 31.6665 49.0834V61.7501C31.6665 62.624 30.9571 63.3333 30.0832 63.3333C29.2093 63.3333 28.4999 62.624 28.4999 61.7501V57.0001H22.1667V61.7501C22.1667 62.624 21.4573 63.3333 20.5834 63.3333C19.7095 63.3333 19.0001 62.624 19.0001 61.7501V49.0834H19ZM6.62791 54.4969L14.5446 43.4136C15.0528 42.7011 16.044 42.5365 16.7534 43.0448C17.4659 43.553 17.6304 44.5427 17.1222 45.2535L9.86272 55.4168L17.1222 65.5801C17.6304 66.2909 17.4659 67.2807 16.7534 67.7889C16.4747 67.9868 16.1533 68.0833 15.8351 68.0833C15.3412 68.0833 14.8534 67.8521 14.5446 67.42L6.62791 56.3367C6.23529 55.7857 6.23529 55.0478 6.62791 54.4969Z" fill="black"/>
</svg>
