<svg width="97" height="96" viewBox="0 0 97 96" fill="none" xmlns="http://www.w3.org/2000/svg">
<path d="M95.3834 35.1999H77.6V22.3999H56.5834C55.6894 22.3999 54.9668 21.6831 54.9668 20.7999V0H1.6166C0.722574 0 0 0.716812 0 1.59994V94.3999C0 95.2832 0.722574 96 1.6166 96H75.9832C76.8772 96 77.5998 95.2832 77.5998 94.4001V76.8H95.3832C96.2772 76.8 96.9998 76.0832 96.9998 75.2001V36.8001C97 35.9167 96.2774 35.1999 95.3834 35.1999ZM93.7666 73.5999H75.9832H21.0166V38.4H75.9832H93.7666V73.5999Z" fill="black"/>
<path d="M61.4332 44.7999C64.1071 44.7999 66.2832 46.9536 66.2832 49.5999C66.2832 50.4831 67.0058 51.1999 67.8998 51.1999C68.7938 51.1999 69.5164 50.4831 69.5164 49.5999C69.5164 45.1888 65.8903 41.5999 61.433 41.5999C56.9759 41.5999 53.3496 45.1886 53.3496 49.5999C53.3496 54.0111 56.9757 57.6 61.433 57.6C64.1069 57.6 66.283 59.7536 66.283 62.4C66.283 65.0464 64.1069 67.2 61.433 67.2C58.7591 67.2 56.583 65.0464 56.583 62.4C56.583 61.5169 55.8604 60.8001 54.9664 60.8001C54.0724 60.8001 53.3498 61.5169 53.3498 62.4C53.3498 66.8111 56.9759 70.4001 61.4332 70.4001C65.8903 70.4001 69.5166 66.8113 69.5166 62.4C69.5166 57.9889 65.8905 54.3999 61.4332 54.3999C58.7593 54.3999 56.5832 52.2463 56.5832 49.5999C56.5832 46.9536 58.7593 44.7999 61.4332 44.7999Z" fill="black"/>
<path d="M82.4496 57.6C85.1236 57.6 87.2996 59.7536 87.2996 62.4C87.2996 65.0464 85.1236 67.2 82.4496 67.2C79.7757 67.2 77.5996 65.0464 77.5996 62.4C77.5996 61.5169 76.877 60.8001 75.983 60.8001C75.089 60.8001 74.3664 61.5169 74.3664 62.4C74.3664 66.8111 77.9925 70.4001 82.4498 70.4001C86.9069 70.4001 90.5332 66.8113 90.5332 62.4C90.5332 57.9889 86.9071 54.3999 82.4498 54.3999C79.7759 54.3999 77.5998 52.2463 77.5998 49.5999C77.5998 46.9536 79.7759 44.7999 82.4498 44.7999C85.1237 44.7999 87.2998 46.9536 87.2998 49.5999C87.2998 50.4831 88.0224 51.1999 88.9164 51.1999C89.8104 51.1999 90.533 50.4831 90.533 49.5999C90.533 45.1888 86.9069 41.5999 82.4496 41.5999C77.9925 41.5999 74.3662 45.1886 74.3662 49.5999C74.3662 54.0112 77.9925 57.6 82.4496 57.6Z" fill="black"/>
<path d="M45.8746 64.7437C43.8472 66.3501 41.4012 67.1998 38.8 67.1998C32.5613 67.1998 27.4834 62.1757 27.4834 55.9999C27.4834 49.824 32.5613 44.7999 38.8 44.7999C41.4012 44.7999 43.8472 45.6495 45.8713 47.256C46.5714 47.8112 47.5882 47.6992 48.1444 47.0096C48.7038 46.32 48.5923 45.312 47.8954 44.76C45.3282 42.7217 42.098 41.6001 38.8 41.6001C30.7765 41.6001 24.25 48.0609 24.25 56.0001C24.25 63.9409 30.7765 70.4001 38.8 70.4001C42.0963 70.4001 45.3282 69.2784 47.8954 67.2416C48.5938 66.6879 48.7054 65.6816 48.1461 64.992C47.5914 64.3037 46.5746 64.1917 45.8746 64.7437Z" fill="black"/>
<path d="M58.1997 0.9375V19.1998H76.6522L58.1997 0.9375Z" fill="black"/>
</svg>
