<svg width="95" height="96" viewBox="0 0 95 96" fill="none" xmlns="http://www.w3.org/2000/svg">
<path d="M84.0066 50.7133C83.1523 49.5941 82.2253 48.4746 81.2347 47.3593C81.9156 46.5607 82.5645 45.7607 83.1751 44.9608C89.4867 36.6909 91.2787 29.1889 88.2209 23.8371C85.1633 18.4851 77.8388 16.3024 67.5948 17.691C66.5149 17.8374 65.4125 18.0231 64.2926 18.2436C63.9115 17.1176 63.5079 16.0269 63.0808 14.9777C59.149 5.31919 53.6158 0 47.5004 0C41.385 0 35.8518 5.31919 31.9202 14.9777C31.4931 16.0269 31.0895 17.1176 30.7084 18.2436C29.5884 18.0233 28.4859 17.8374 27.4062 17.691C17.1633 16.3026 9.83792 18.4851 6.7801 23.8371C3.72229 29.1891 5.5143 36.6909 11.8259 44.9608C12.4363 45.7607 13.0852 46.5607 13.7663 47.3593C12.7755 48.4746 11.8487 49.5939 10.9944 50.7133C4.68287 58.9832 2.89086 66.4853 5.94867 71.8371C8.40549 76.1372 13.6157 78.3911 20.8822 78.3911C22.6596 78.3911 24.5614 78.2561 26.5746 77.9831C27.8712 77.8073 29.2001 77.5755 30.5539 77.2933C30.9797 78.5841 31.4348 79.83 31.9202 81.0225C35.8518 90.6808 41.385 96 47.5004 96C53.6158 96 59.149 90.6808 63.0806 81.0223C63.566 79.8298 64.0211 78.5839 64.447 77.2931C65.8007 77.5753 67.1296 77.8072 68.4262 77.9829C70.4399 78.2559 72.3407 78.3909 74.1186 78.3909C81.3844 78.3909 86.5957 76.1368 89.0521 71.8369C92.1101 66.4851 90.3181 58.9832 84.0066 50.7133V50.7133ZM73.3185 22.8986C78.4066 22.8986 82.0028 24.2038 83.4002 26.6494C85.2286 29.8496 83.5399 35.2717 78.7673 41.5254C78.3125 42.1213 77.8336 42.7176 77.3349 43.3136C74.5444 40.6309 71.4033 38.0059 67.9859 35.5043C67.5139 31.3386 66.8041 27.3579 65.876 23.6569C68.6006 23.1487 71.1023 22.8986 73.3185 22.8986V22.8986ZM54.8898 61.4985C52.3877 62.9582 49.9183 64.2677 47.5021 65.4321C45.0844 64.2673 42.6144 62.9591 40.111 61.4985C37.3491 59.8871 34.706 58.1816 32.2125 56.4101C32.0032 53.7195 31.89 50.9121 31.89 48C31.89 44.7379 32.0315 41.6064 32.2921 38.6246C34.5156 37.0817 36.8515 35.5922 39.2794 34.1756C42.07 32.5476 44.8192 31.1087 47.5002 29.8474C50.1814 31.1087 52.9306 32.5476 55.7212 34.1756C58.1493 35.5922 60.485 37.0817 62.7086 38.6246C62.9691 41.6064 63.1106 44.7379 63.1106 48C63.1106 50.9121 62.9975 53.7195 62.7882 56.4101C60.2948 58.1816 57.6517 59.8871 54.8898 61.4985V61.4985ZM61.9391 63.7507C61.5661 66.1451 61.1138 68.4131 60.5943 70.5386C58.5297 69.9324 56.3786 69.1989 54.16 68.3347C55.3338 67.7049 56.5059 67.0507 57.673 66.3699C59.1266 65.5217 60.5492 64.647 61.9391 63.7507ZM40.8404 68.3346C38.6214 69.1989 36.4709 69.9317 34.4062 70.5379C33.8868 68.4127 33.4345 66.1449 33.0615 63.7507C34.4514 64.647 35.874 65.5217 37.3276 66.3697C38.4947 67.0507 39.6666 67.7049 40.8404 68.3346ZM26.3915 51.927C24.6288 50.4514 22.9772 48.948 21.4533 47.4306C22.9976 45.9424 24.6616 44.4705 26.4317 43.0273C26.3607 44.6689 26.3236 46.3279 26.3236 48C26.3236 49.3179 26.3471 50.6274 26.3915 51.927ZM33.2155 31.2953C33.5898 29.0541 34.0343 26.9297 34.5381 24.9341C36.5158 25.4927 38.5769 26.1707 40.7034 26.9696C39.2974 27.7112 37.8933 28.4893 36.4964 29.3044C35.3842 29.9531 34.2908 30.6178 33.2155 31.2953V31.2953ZM54.2972 26.9694C56.4237 26.1705 58.4848 25.4923 60.4627 24.9339C60.9665 26.9297 61.411 29.0541 61.7853 31.2953C60.71 30.6178 59.6166 29.9531 58.5046 29.3044C57.1073 28.4891 55.7034 27.711 54.2972 26.9694ZM68.5691 43.0273C70.3392 44.4705 72.0032 45.9424 73.5475 47.4306C72.0236 48.948 70.372 50.4514 68.6093 51.927C68.6537 50.6274 68.6772 49.3179 68.6772 48C68.6772 46.3277 68.6401 44.6689 68.5691 43.0273V43.0273ZM47.5004 5.625C51.5266 5.625 55.8034 10.8006 58.8605 19.5557C55.1772 20.6017 51.359 21.9887 47.5004 23.6841C43.6418 21.9887 39.8236 20.6019 36.1403 19.5557C39.1974 10.8006 43.4742 5.625 47.5004 5.625ZM11.6006 26.6496C12.9982 24.2036 16.5927 22.8988 21.6823 22.8988C23.8983 22.8988 26.4002 23.1489 29.125 23.6572C28.1967 27.3583 27.4871 31.3389 27.0151 35.5044C23.5977 38.0061 20.4566 40.6311 17.6661 43.3138C17.1674 42.7178 16.6885 42.1215 16.2337 41.5256C11.4609 35.2719 9.77223 29.8498 11.6006 26.6496ZM20.8509 72.7753C15.7628 72.7749 12.1665 71.4701 10.7692 69.0246C8.9408 65.8243 10.6295 60.4022 15.4021 54.1485C16.0821 53.2573 16.813 52.3652 17.5902 51.4746C20.3491 54.2154 23.4806 56.904 26.9043 59.4712C27.355 63.8336 28.0627 68.0064 29.0088 71.8794C26.005 72.4815 23.2598 72.7755 20.8509 72.7753V72.7753ZM47.5004 90.375C43.3961 90.375 39.0319 84.9956 35.9644 75.9298C39.7098 74.8296 43.5881 73.3807 47.5004 71.6197C51.4127 73.3807 55.291 74.8296 59.0364 75.9298C55.9689 84.9956 51.6047 90.375 47.5004 90.375ZM84.2316 69.0246C82.1728 72.6283 75.3424 73.7535 65.9918 71.8794C66.9381 68.0064 67.6456 63.8336 68.0963 59.4712C71.5202 56.904 74.6517 54.2154 77.4104 51.4746C78.1876 52.3652 78.9185 53.2575 79.5985 54.1485C84.3715 60.4022 86.0602 65.8243 84.2316 69.0246Z" fill="black"/>
<path d="M47.5005 56.6906C52.2502 56.6906 56.1006 52.7997 56.1006 48C56.1006 43.2003 52.2502 39.3094 47.5005 39.3094C42.7508 39.3094 38.9004 43.2003 38.9004 48C38.9004 52.7997 42.7508 56.6906 47.5005 56.6906Z" fill="black"/>
</svg>
