<svg width="31" height="48" viewBox="0 0 31 48" fill="none" xmlns="http://www.w3.org/2000/svg">
<path d="M1.1407 21.227L21.227 1.1706C21.9667 0.390091 22.8904 0 23.9999 0C25.1095 0 26.0332 0.390523 26.7729 1.1706L29.1143 3.48158C29.8744 4.24158 30.2545 5.16539 30.2545 6.25398C30.2545 7.32195 29.8745 8.25677 29.1143 9.05756L14.1416 24.0001L29.1149 38.9733C29.8748 39.7333 30.2549 40.6571 30.2549 41.7458C30.2549 42.8137 29.8749 43.7488 29.1149 44.5493L26.7733 46.8599C26.0133 47.6199 25.0886 47.9999 24.0004 47.9999C22.9117 47.9999 21.9872 47.6199 21.2274 46.8599L1.1407 26.8035C0.380375 26.0025 -1.14441e-05 25.0679 -1.14441e-05 23.9999C-0.000120163 22.9114 0.380375 21.987 1.1407 21.227Z" fill="white"/>
</svg>
