<svg width="31" height="48" viewBox="0 0 31 48" fill="none" xmlns="http://www.w3.org/2000/svg">
<path d="M29.1142 21.227L9.02789 1.1706C8.28817 0.390091 7.36447 0 6.25495 0C5.14543 0 4.22173 0.390523 3.48201 1.1706L1.1406 3.48158C0.380487 4.24158 0.000431399 5.16539 0.000431399 6.25398C0.000431399 7.32195 0.380379 8.25677 1.1406 9.05756L16.1133 24.0001L1.13995 38.9733C0.380056 39.7333 0 40.6571 0 41.7458C0 42.8137 0.379948 43.7488 1.13995 44.5493L3.48158 46.8599C4.24158 47.6199 5.16625 47.9999 6.25452 47.9999C7.34321 47.9999 8.26767 47.6199 9.02746 46.8599L29.1142 26.8035C29.8745 26.0025 30.2549 25.0679 30.2549 23.9999C30.255 22.9114 29.8745 21.987 29.1142 21.227Z" fill="black"/>
</svg>
