<svg width="24" height="25" viewBox="0 0 24 25" fill="none" xmlns="http://www.w3.org/2000/svg">
<path d="M11.9985 0.260201C5.373 0.260201 0 5.87895 0 12.8102C0 18.354 3.438 23.0571 8.208 24.718C8.808 24.8336 9.027 24.4461 9.027 24.1133C9.027 23.8149 9.0165 23.0258 9.0105 21.979C5.673 22.7368 4.968 20.2961 4.968 20.2961C4.4235 18.8461 3.636 18.4602 3.636 18.4602C2.5455 17.6821 3.717 17.6977 3.717 17.6977C4.9215 17.7868 5.5545 18.9915 5.5545 18.9915C6.6255 20.9086 8.364 20.3555 9.048 20.0336C9.156 19.2227 9.4665 18.6696 9.81 18.3555C7.146 18.0383 4.344 16.9618 4.344 12.154C4.344 10.7836 4.812 9.66333 5.58 8.7852C5.4555 8.46801 5.0445 7.19145 5.697 5.46489C5.697 5.46489 6.705 5.12739 8.997 6.75083C9.954 6.4727 10.98 6.33364 12.0015 6.32895C13.02 6.3352 14.0475 6.4727 15.006 6.75239C17.2965 5.12895 18.303 5.46645 18.303 5.46645C18.957 7.19458 18.546 8.46958 18.423 8.78676C19.1925 9.66489 19.656 10.7852 19.656 12.1555C19.656 16.9758 16.851 18.0368 14.178 18.3477C14.6085 18.7352 14.9925 19.5008 14.9925 20.6711C14.9925 22.3493 14.9775 23.7024 14.9775 24.1133C14.9775 24.4493 15.1935 24.8399 15.8025 24.7165C20.565 23.054 24 18.3524 24 12.8102C24 5.87895 18.627 0.260201 11.9985 0.260201Z" fill="white"/>
</svg>
