<svg width="39" height="27" viewBox="0 0 39 27" fill="none" xmlns="http://www.w3.org/2000/svg">
<path d="M37.3753 22.371H1.62516C1.18476 22.371 0.803862 22.4667 0.482282 22.6574C0.160701 22.8481 0 23.0743 0 23.3354V25.264C0 25.5251 0.160701 25.751 0.482371 25.9419C0.804218 26.1326 1.18512 26.2281 1.62524 26.2281H37.3754C37.8154 26.2281 38.1961 26.1326 38.5179 25.9419C38.8393 25.7511 39 25.5252 39 25.264V23.3354C39 23.0743 38.8399 22.8481 38.5179 22.6574C38.1961 22.4667 37.8157 22.371 37.3753 22.371Z" fill="white"/>
<path d="M38.5178 1.05772C38.1961 0.86684 37.8154 0.771374 37.3753 0.771374H1.62516C1.18476 0.771374 0.803862 0.86684 0.482282 1.05772C0.160701 1.2485 0 1.47452 0 1.73559V3.6643C0 3.92547 0.160701 4.15134 0.482371 4.34227C0.804218 4.53321 1.18512 4.62852 1.62524 4.62852H37.3754C37.8154 4.62852 38.1961 4.53316 38.5179 4.34227C38.8393 4.15139 39 3.92547 39 3.6643V1.73559C38.9999 1.47452 38.8395 1.2485 38.5178 1.05772Z" fill="white"/>
<path d="M37.3753 11.5712H1.62516C1.18476 11.5712 0.803862 11.6667 0.482282 11.8576C0.160701 12.0483 0 12.2743 0 12.5354V14.464C0 14.7251 0.160701 14.9514 0.482371 15.1419C0.804218 15.3326 1.18512 15.4284 1.62524 15.4284H37.3754C37.8154 15.4284 38.1961 15.3327 38.5179 15.1419C38.8393 14.9514 39 14.7252 39 14.464V12.5354C39 12.2743 38.8393 12.0483 38.5179 11.8575C38.1961 11.6666 37.8157 11.5712 37.3753 11.5712Z" fill="white"/>
</svg>
