<svg width="25" height="25" viewBox="0 0 25 25" fill="none" xmlns="http://www.w3.org/2000/svg">
<path d="M16.8637 0H7.66534C3.43254 0 0 3.43254 0 7.66534V16.8637C0 21.0965 3.43254 24.5291 7.66534 24.5291H16.8637C21.0965 24.5291 24.5291 21.0965 24.5291 16.8637V7.66534C24.5291 3.43254 21.0965 0 16.8637 0ZM22.2295 16.8637C22.2295 19.8226 19.8226 22.2295 16.8637 22.2295H7.66534C4.70652 22.2295 2.2996 19.8226 2.2996 16.8637V7.66534C2.2996 4.70652 4.70652 2.2996 7.66534 2.2996H16.8637C19.8226 2.2996 22.2295 4.70652 22.2295 7.66534V16.8637Z" fill="white"/>
<path d="M12.2645 6.13227C8.878 6.13227 6.13228 8.878 6.13228 12.2645C6.13228 15.6511 8.878 18.3968 12.2645 18.3968C15.6511 18.3968 18.3968 15.6511 18.3968 12.2645C18.3968 8.878 15.6511 6.13227 12.2645 6.13227ZM12.2645 16.0972C10.152 16.0972 8.43188 14.3771 8.43188 12.2645C8.43188 10.1504 10.152 8.43187 12.2645 8.43187C14.3771 8.43187 16.0972 10.1504 16.0972 12.2645C16.0972 14.3771 14.3771 16.0972 12.2645 16.0972Z" fill="white"/>
</svg>
