<svg width="92" height="101" viewBox="0 0 92 101" fill="none" xmlns="http://www.w3.org/2000/svg">
<path d="M42.0978 1.25618C44.5827 -0.166152 47.8193 -0.172576 50.302 1.25618C62.7924 8.31392 75.2868 15.3606 87.7751 22.4226C90.1239 23.7457 91.6951 26.3598 91.6712 29.0663V71.5284C91.6887 74.347 89.9623 77.0236 87.4842 78.3167C75.0348 85.3355 62.5918 92.3629 50.1446 99.3818C47.6083 100.832 44.3068 100.72 41.8498 99.1512C38.1175 96.9875 34.3787 94.8346 30.646 92.6731C29.8833 92.2184 29.0235 91.8565 28.4849 91.1169C28.961 90.4752 29.8123 90.3952 30.504 90.115C32.0619 89.6196 33.4928 88.8244 34.9241 88.0528C35.286 87.8051 35.7279 87.9 36.0748 88.1216C39.2664 89.9516 42.4298 91.8347 45.6321 93.6471C46.3152 94.0415 47.0069 93.5179 47.5908 93.1924C59.8075 86.2878 72.0392 79.4092 84.2537 72.5025C84.7063 72.2847 84.9565 71.8043 84.9197 71.3086C84.9283 57.3012 84.9218 43.2914 84.924 29.2841C84.9757 28.7215 84.6502 28.2044 84.1416 27.9742C71.7354 20.9874 59.3357 13.99 46.9316 7.00152C46.7167 6.85377 46.4621 6.7745 46.2013 6.77412C45.9405 6.77374 45.6857 6.85226 45.4704 6.99938C33.0663 13.99 20.6687 20.9939 8.26465 27.9802C7.75782 28.2108 7.41768 28.7194 7.478 29.2841C7.48014 43.2914 7.478 57.3012 7.478 71.3107C7.45649 71.5526 7.50961 71.7953 7.63022 72.006C7.75083 72.2168 7.93313 72.3856 8.15258 72.4896C11.4627 74.3667 14.777 76.2305 18.0892 78.1011C19.9552 79.1055 22.2463 79.7023 24.3021 78.9327C26.1164 78.2821 27.3881 76.4307 27.3535 74.5044C27.3706 60.5788 27.3449 46.6511 27.3663 32.7276C27.321 32.1094 27.9074 31.5987 28.5084 31.6569C30.0989 31.6462 31.6915 31.6354 33.2819 31.6611C33.9458 31.6462 34.4026 32.3118 34.3205 32.9346C34.3141 46.9484 34.3377 60.9625 34.3098 74.9763C34.3141 78.7111 32.7797 82.775 29.3251 84.6024C25.0692 86.8071 19.8089 86.3395 15.6044 84.2255C11.9645 82.4088 8.49094 80.2648 4.91567 78.3185C2.43114 77.0325 0.713287 74.3452 0.730776 71.5288V29.0663C0.704721 26.3038 2.33834 23.6422 4.76041 22.3384C17.2076 15.3138 29.6527 8.28394 42.0978 1.25618Z" fill="black"/>
<path d="M52.957 30.67C58.3857 30.3206 64.1975 30.463 69.0826 33.1374C72.8649 35.1868 74.9618 39.488 75.0286 43.6901C74.9229 44.2569 74.3304 44.5695 73.7893 44.5306C72.2142 44.5285 70.6388 44.552 69.0637 44.5199C68.3955 44.5456 68.0072 43.9296 67.9233 43.3389C67.4708 41.3283 66.3743 39.3371 64.4819 38.3673C61.5769 36.9129 58.2087 36.986 55.041 37.0164C52.7285 37.1392 50.2419 37.3394 48.2827 38.6993C46.7787 39.7293 46.3218 41.8087 46.8586 43.4834C47.3647 44.6859 48.7528 45.0738 49.8885 45.4315C56.4309 47.1426 63.3637 46.9723 69.7811 49.2241C72.438 50.1421 75.0371 51.9267 75.9466 54.7086C77.1362 58.4369 76.6147 62.8934 73.9621 65.8866C71.8109 68.3497 68.6779 69.6903 65.553 70.4184C61.396 71.3453 57.0819 71.3689 52.8602 70.9573C48.8906 70.5048 44.7596 69.4619 41.6951 66.7571C39.0746 64.4817 37.7946 60.9365 37.9217 57.5147C37.952 56.9368 38.5274 56.5338 39.081 56.5813C40.6671 56.5685 42.2533 56.5642 43.8394 56.5835C44.473 56.5381 44.9427 57.0856 44.9752 57.6828C45.2678 59.5984 45.9877 61.6089 47.6581 62.7446C50.8818 64.8244 54.9268 64.682 58.6181 64.7402C61.6762 64.6045 65.109 64.5635 67.6046 62.5422C68.9213 61.3894 69.3114 59.4606 68.9556 57.8013C68.5701 56.4004 67.1046 55.7475 65.8461 55.3207C59.3876 53.2777 52.3773 54.019 45.9813 51.7086C43.3847 50.791 40.8738 49.056 39.8762 46.3884C38.4842 42.6129 39.122 37.9429 42.0527 35.0508C44.9102 32.174 49.0351 31.0662 52.957 30.6696V30.67Z" fill="black"/>
</svg>
